<svg width="656" height="584" viewBox="0 0 656 584" fill="none" xmlns="http://www.w3.org/2000/svg">
<path d="M192 16C192 7.16344 199.163 0 208 0H640C648.837 0 656 7.16344 656 16V232C656 240.837 648.837 248 640 248H208C199.163 248 192 240.837 192 232V16Z" fill="black" fill-opacity="0.85"/>
<path d="M384 280C384 271.163 391.163 264 400 264H544C552.837 264 560 271.163 560 280V568C560 576.837 552.837 584 544 584H400C391.163 584 384 576.837 384 568V280Z" fill="black" fill-opacity="0.33"/>
<path d="M0 416C0 407.163 7.16344 400 16 400H352C360.837 400 368 407.163 368 416V568C368 576.837 360.837 584 352 584H16C7.16344 584 0 576.837 0 568V416Z" fill="black" fill-opacity="0.8"/>
<path d="M0 280C0 271.163 7.16344 264 16 264H352C360.837 264 368 271.163 368 280V368C368 376.837 360.837 384 352 384H16C7.16344 384 0 376.837 0 368V280Z" fill="black" fill-opacity="0.4"/>
</svg>
