<svg width="656" height="584" viewBox="0 0 656 584" fill="none" xmlns="http://www.w3.org/2000/svg">
<path fill-rule="evenodd" clip-rule="evenodd" d="M208 0C199.163 0 192 7.16344 192 16V232C192 240.837 199.163 248 208 248H640C648.837 248 656 240.837 656 232V16C656 7.16344 648.837 0 640 0H208ZM400 264C391.163 264 384 271.163 384 280V568C384 576.837 391.163 584 400 584H544C552.837 584 560 576.837 560 568V280C560 271.163 552.837 264 544 264H400ZM0 416C0 407.163 7.16344 400 16 400H352C360.837 400 368 407.163 368 416V568C368 576.837 360.837 584 352 584H16C7.16344 584 0 576.837 0 568V416ZM16 264C7.16344 264 0 271.163 0 280V368C0 376.837 7.16344 384 16 384H352C360.837 384 368 376.837 368 368V280C368 271.163 360.837 264 352 264H16Z" fill="black"/>
</svg>
