<svg width="132" height="50" viewBox="0 0 132 50" fill="none" xmlns="http://www.w3.org/2000/svg">
<path d="M95.744 14.44L87.968 37H79.936L72.128 14.44H78.848L83.968 30.728L89.056 14.44H95.744Z" fill="#F4F0E7"/>
<mask id="path-2-outside-1_5_204" maskUnits="userSpaceOnUse" x="98" y="13" width="36" height="25" fill="black">
<rect fill="white" x="98" y="13" width="36" height="25"/>
<path d="M131.936 14.44L122.432 37H114.72L114.048 23.144L108.416 37H100.704L99.232 14.44H106.016L105.952 29.864L112.192 14.44H119.072L119.808 29.8L125.152 14.44H131.936Z"/>
</mask>
<path d="M131.936 14.44L132.858 14.8282L133.442 13.44H131.936V14.44ZM122.432 37V38H123.096L123.354 37.3882L122.432 37ZM114.72 37L113.721 37.0484L113.767 38H114.72V37ZM114.048 23.144L115.047 23.0956L113.122 22.7675L114.048 23.144ZM108.416 37V38H109.089L109.342 37.3765L108.416 37ZM100.704 37L99.7061 37.0651L99.7671 38H100.704V37ZM99.232 14.44V13.44H98.1646L98.2341 14.5051L99.232 14.44ZM106.016 14.44L107.016 14.4441L107.02 13.44H106.016V14.44ZM105.952 29.864L104.952 29.8598L106.879 30.239L105.952 29.864ZM112.192 14.44V13.44H111.518L111.265 14.065L112.192 14.44ZM119.072 14.44L120.071 14.3921L120.025 13.44H119.072V14.44ZM119.808 29.8L118.809 29.8479L120.752 30.1286L119.808 29.8ZM125.152 14.44V13.44H124.441L124.208 14.1114L125.152 14.44ZM131.014 14.0518L121.51 36.6118L123.354 37.3882L132.858 14.8282L131.014 14.0518ZM122.432 36H114.72V38H122.432V36ZM115.719 36.9516L115.047 23.0956L113.049 23.1924L113.721 37.0484L115.719 36.9516ZM113.122 22.7675L107.49 36.6235L109.342 37.3765L114.974 23.5205L113.122 22.7675ZM108.416 36H100.704V38H108.416V36ZM101.702 36.9349L100.23 14.3749L98.2341 14.5051L99.7061 37.0651L101.702 36.9349ZM99.232 15.44H106.016V13.44H99.232V15.44ZM105.016 14.4358L104.952 29.8598L106.952 29.8681L107.016 14.4441L105.016 14.4358ZM106.879 30.239L113.119 14.815L111.265 14.065L105.025 29.489L106.879 30.239ZM112.192 15.44H119.072V13.44H112.192V15.44ZM118.073 14.4879L118.809 29.8479L120.807 29.7521L120.071 14.3921L118.073 14.4879ZM120.752 30.1286L126.096 14.7686L124.208 14.1114L118.864 29.4714L120.752 30.1286ZM125.152 15.44H131.936V13.44H125.152V15.44Z" fill="#F4F0E7" mask="url(#path-2-outside-1_5_204)"/>
<path fill-rule="evenodd" clip-rule="evenodd" d="M24 0L48 24L24 48L0 24L24 0ZM19.2 30L24 34.8L28.8 30H33V29H29.8L34.8 24L42 24V23H33.8L29.3999 18.6H33V17.6H28.3999L24 13.2L19.6001 17.6H15V18.6H18.6001L14.2 23H6.6V24H13.2L13.2 24L18.2 29H15V30H19.2Z" fill="#F4F0E7"/>
</svg>
