<svg width="293" height="50" viewBox="0 0 293 50" fill="none" xmlns="http://www.w3.org/2000/svg">
<path d="M95.744 14.44L87.968 37H79.936L72.128 14.44H78.848L83.968 30.728L89.056 14.44H95.744ZM103.97 19.464V23.144H111.17V27.912H103.97V31.976H112.13V37H97.6983V14.44H112.13V19.464H103.97ZM126.654 37L122.174 28.68H121.502V37H115.23V14.44H125.118C126.931 14.44 128.467 14.76 129.726 15.4C130.984 16.0187 131.934 16.8827 132.574 17.992C133.214 19.08 133.534 20.3067 133.534 21.672C133.534 23.208 133.107 24.5627 132.253 25.736C131.422 26.888 130.195 27.7093 128.574 28.2L133.662 37H126.654ZM121.502 24.392H124.606C125.459 24.392 126.099 24.1893 126.526 23.784C126.952 23.3787 127.166 22.792 127.166 22.024C127.166 21.2987 126.942 20.7333 126.494 20.328C126.067 19.9013 125.438 19.688 124.606 19.688H121.502V24.392ZM150.786 25.416C152.108 25.7147 153.154 26.376 153.922 27.4C154.711 28.4027 155.106 29.5547 155.106 30.856C155.106 32.776 154.444 34.28 153.122 35.368C151.799 36.456 149.943 37 147.554 37H136.386V14.44H147.202C149.506 14.44 151.308 14.952 152.61 15.976C153.932 17 154.594 18.44 154.594 20.296C154.594 21.6187 154.242 22.728 153.538 23.624C152.855 24.4987 151.938 25.096 150.786 25.416ZM142.658 23.4H145.826C147.404 23.4 148.194 22.7493 148.194 21.448C148.194 20.104 147.404 19.432 145.826 19.432H142.658V23.4ZM146.306 31.944C147.884 31.944 148.674 31.2827 148.674 29.96C148.674 29.2773 148.46 28.7547 148.034 28.392C147.628 28.0293 147.042 27.848 146.274 27.848H142.658V31.944H146.306ZM163.999 14.44V27.528C163.999 28.744 164.276 29.6827 164.831 30.344C165.407 31.0053 166.271 31.336 167.423 31.336C168.575 31.336 169.439 31.0053 170.015 30.344C170.612 29.6613 170.911 28.7227 170.911 27.528V14.44H177.183V27.528C177.183 29.5973 176.745 31.368 175.871 32.84C174.996 34.2907 173.801 35.3893 172.287 36.136C170.793 36.8613 169.129 37.224 167.295 37.224C165.46 37.224 163.817 36.8613 162.367 36.136C160.937 35.3893 159.807 34.2907 158.975 32.84C158.164 31.3893 157.759 29.6187 157.759 27.528V14.44H163.999ZM206.972 14.44V37H200.7V24.552L196.444 37H191.196L186.908 24.456V37H180.636V14.44H188.22L193.884 29.096L199.42 14.44H206.972Z" fill="#F4F0E7"/>
<mask id="path-2-outside-1_5_205" maskUnits="userSpaceOnUse" x="211" y="13" width="82" height="25" fill="black">
<rect fill="white" x="211" y="13" width="82" height="25"/>
<path d="M244.936 14.44L235.432 37H227.72L227.048 23.144L221.416 37H213.704L212.232 14.44H219.016L218.952 29.864L225.192 14.44H232.072L232.808 29.8L238.152 14.44H244.936ZM253.006 19.4L252.366 23.144H259.566L258.702 27.912H251.502L250.766 32.008H258.926L258.062 37H243.598L247.598 14.44H262.03L261.166 19.4H253.006ZM268.297 32.232H275.305L274.441 37H261.129L265.129 14.44H271.401L268.297 32.232ZM284.016 32.232H291.024L290.16 37H276.848L280.848 14.44H287.12L284.016 32.232Z"/>
</mask>
<path d="M244.936 14.44L245.858 14.8282L246.442 13.44H244.936V14.44ZM235.432 37V38H236.096L236.354 37.3882L235.432 37ZM227.72 37L226.721 37.0484L226.767 38H227.72V37ZM227.048 23.144L228.047 23.0956L226.122 22.7675L227.048 23.144ZM221.416 37V38H222.089L222.342 37.3765L221.416 37ZM213.704 37L212.706 37.0651L212.767 38H213.704V37ZM212.232 14.44V13.44H211.165L211.234 14.5051L212.232 14.44ZM219.016 14.44L220.016 14.4441L220.02 13.44H219.016V14.44ZM218.952 29.864L217.952 29.8598L219.879 30.239L218.952 29.864ZM225.192 14.44V13.44H224.518L224.265 14.065L225.192 14.44ZM232.072 14.44L233.071 14.3921L233.025 13.44H232.072V14.44ZM232.808 29.8L231.809 29.8479L233.752 30.1286L232.808 29.8ZM238.152 14.44V13.44H237.441L237.208 14.1114L238.152 14.44ZM244.014 14.0518L234.51 36.6118L236.354 37.3882L245.858 14.8282L244.014 14.0518ZM235.432 36H227.72V38H235.432V36ZM228.719 36.9516L228.047 23.0956L226.049 23.1924L226.721 37.0484L228.719 36.9516ZM226.122 22.7675L220.49 36.6235L222.342 37.3765L227.974 23.5205L226.122 22.7675ZM221.416 36H213.704V38H221.416V36ZM214.702 36.9349L213.23 14.3749L211.234 14.5051L212.706 37.0651L214.702 36.9349ZM212.232 15.44H219.016V13.44H212.232V15.44ZM218.016 14.4358L217.952 29.8598L219.952 29.8681L220.016 14.4441L218.016 14.4358ZM219.879 30.239L226.119 14.815L224.265 14.065L218.025 29.489L219.879 30.239ZM225.192 15.44H232.072V13.44H225.192V15.44ZM231.073 14.4879L231.809 29.8479L233.807 29.7521L233.071 14.3921L231.073 14.4879ZM233.752 30.1286L239.096 14.7686L237.208 14.1114L231.864 29.4714L233.752 30.1286ZM238.152 15.44H244.936V13.44H238.152V15.44ZM253.006 19.4V18.4H252.162L252.02 19.2315L253.006 19.4ZM252.366 23.144L251.38 22.9755L251.18 24.144H252.366V23.144ZM259.565 23.144L260.549 23.3223L260.763 22.144H259.565V23.144ZM258.701 27.912V28.912H259.537L259.685 28.0903L258.701 27.912ZM251.501 27.912V26.912H250.665L250.517 27.7351L251.501 27.912ZM250.765 32.008L249.781 31.8311L249.57 33.008H250.765V32.008ZM258.925 32.008L259.911 32.1785L260.113 31.008H258.925V32.008ZM258.062 37V38H258.903L259.047 37.1705L258.062 37ZM243.597 37L242.613 36.8254L242.405 38H243.597V37ZM247.597 14.44V13.44H246.759L246.613 14.2654L247.597 14.44ZM262.03 14.44L263.015 14.6116L263.219 13.44H262.03V14.44ZM261.166 19.4V20.4H262.006L262.151 19.5716L261.166 19.4ZM252.02 19.2315L251.38 22.9755L253.351 23.3125L253.991 19.5685L252.02 19.2315ZM252.366 24.144H259.565V22.144H252.366V24.144ZM258.582 22.9657L257.718 27.7337L259.685 28.0903L260.549 23.3223L258.582 22.9657ZM258.701 26.912H251.501V28.912H258.701V26.912ZM250.517 27.7351L249.781 31.8311L251.75 32.1849L252.486 28.0889L250.517 27.7351ZM250.765 33.008H258.925V31.008H250.765V33.008ZM257.94 31.8375L257.076 36.8295L259.047 37.1705L259.911 32.1785L257.94 31.8375ZM258.062 36H243.597V38H258.062V36ZM244.582 37.1746L248.582 14.6146L246.613 14.2654L242.613 36.8254L244.582 37.1746ZM247.597 15.44H262.03V13.44H247.597V15.44ZM261.044 14.2684L260.18 19.2284L262.151 19.5716L263.015 14.6116L261.044 14.2684ZM261.166 18.4H253.006V20.4H261.166V18.4ZM268.297 32.232L267.312 32.0601L267.107 33.232H268.297V32.232ZM275.305 32.232L276.289 32.4103L276.502 31.232H275.305V32.232ZM274.441 37V38H275.276L275.425 37.1783L274.441 37ZM261.129 37L260.144 36.8254L259.936 38H261.129V37ZM265.129 14.44V13.44H264.29L264.144 14.2654L265.129 14.44ZM271.401 14.44L272.386 14.6119L272.59 13.44H271.401V14.44ZM268.297 33.232H275.305V31.232H268.297V33.232ZM274.321 32.0537L273.457 36.8217L275.425 37.1783L276.289 32.4103L274.321 32.0537ZM274.441 36H261.129V38H274.441V36ZM262.113 37.1746L266.113 14.6146L264.144 14.2654L260.144 36.8254L262.113 37.1746ZM265.129 15.44H271.401V13.44H265.129V15.44ZM270.416 14.2681L267.312 32.0601L269.282 32.4039L272.386 14.6119L270.416 14.2681ZM284.016 32.232L283.03 32.0601L282.826 33.232H284.016V32.232ZM291.023 32.232L292.007 32.4103L292.221 31.232H291.023V32.232ZM290.16 37V38H290.995L291.143 37.1783L290.16 37ZM276.848 37L275.863 36.8254L275.655 38H276.848V37ZM280.848 14.44V13.44H280.009L279.863 14.2654L280.848 14.44ZM287.119 14.44L288.105 14.6119L288.309 13.44H287.119V14.44ZM284.016 33.232H291.023V31.232H284.016V33.232ZM290.04 32.0537L289.176 36.8217L291.143 37.1783L292.007 32.4103L290.04 32.0537ZM290.16 36H276.848V38H290.16V36ZM277.832 37.1746L281.832 14.6146L279.863 14.2654L275.863 36.8254L277.832 37.1746ZM280.848 15.44H287.119V13.44H280.848V15.44ZM286.134 14.2681L283.03 32.0601L285.001 32.4039L288.105 14.6119L286.134 14.2681Z" fill="#F4F0E7" mask="url(#path-2-outside-1_5_205)"/>
<path fill-rule="evenodd" clip-rule="evenodd" d="M24 0L48 24L24 48L0 24L24 0ZM19.2 30L24 34.8L28.8 30H33V29H29.8L34.8 24L42 24V23H33.8L29.3999 18.6H33V17.6H28.3999L24 13.2L19.6001 17.6H15V18.6H18.6001L14.2 23H6.6V24H13.2L13.2 24L18.2 29H15V30H19.2Z" fill="#F4F0E7"/>
</svg>
