<svg width="27" height="26" viewBox="0 0 27 26" fill="none" xmlns="http://www.w3.org/2000/svg">
<path d="M13.5 11.5696C11.9096 11.5696 10.5474 11.0026 9.41336 9.86856C8.27936 8.73455 7.713 7.37298 7.71429 5.78384C7.71557 4.1947 8.28193 2.83184 9.41336 1.69527C10.5448 0.558697 11.907 -0.00637434 13.5 5.42344e-05C15.093 0.00648281 16.4552 0.572196 17.5866 1.6972C18.7181 2.8222 19.2844 4.18505 19.2857 5.78577C19.287 7.38648 18.7206 8.74805 17.5866 9.87048C16.4526 10.9929 15.0904 11.558 13.5 11.5696ZM0 25.5151V22.3406C0 21.5448 0.231429 20.8003 0.694286 20.1073C1.15714 19.4143 1.78071 18.8756 2.565 18.4912C4.38557 17.6182 6.20679 16.9638 8.02864 16.5279C9.8505 16.0921 11.6743 15.8735 13.5 15.8722C15.3257 15.8709 17.1495 16.0895 18.9714 16.5279C20.7932 16.9663 22.6138 17.6208 24.4331 18.4912C25.2174 18.8743 25.8409 19.4131 26.3038 20.1073C26.7666 20.8016 26.9987 21.5454 27 22.3387V25.5131L0 25.5151ZM1.92857 23.5865H25.0714V22.3406C25.0714 21.9138 24.9339 21.512 24.6587 21.1353C24.3836 20.7586 24.0017 20.441 23.5131 20.1826C21.9266 19.4137 20.2899 18.8248 18.603 18.416C16.9161 18.0071 15.2151 17.8014 13.5 17.7988C11.7849 17.7963 10.0839 18.0013 8.397 18.4141C6.71014 18.8268 5.07343 19.4156 3.48686 20.1806C2.99829 20.4403 2.61643 20.7579 2.34129 21.1333C2.06614 21.5101 1.92857 21.9125 1.92857 22.3406V23.5865ZM13.5 9.64291C14.5607 9.64291 15.4691 9.26491 16.2251 8.50891C16.9811 7.75291 17.3584 6.84455 17.3571 5.78384C17.3559 4.72313 16.9785 3.81477 16.2251 3.05877C15.4716 2.30277 14.5633 1.92541 13.5 1.9267C12.4367 1.92798 11.529 2.30534 10.7769 3.05877C10.0247 3.8122 9.64671 4.72055 9.64286 5.78384C9.639 6.84713 10.017 7.75484 10.7769 8.50698C11.5367 9.25913 12.4444 9.63905 13.5 9.64291Z" fill="#F4F0E7"/>
</svg>
