<svg width="24" height="21" viewBox="0 0 24 21" fill="none" xmlns="http://www.w3.org/2000/svg">
<path d="M24 10.08C24 10.2207 23.945 10.3556 23.8472 10.4551C23.7493 10.5546 23.6166 10.6105 23.4783 10.6105H1.78212L10.2824 19.2539C10.3803 19.3534 10.4353 19.4884 10.4353 19.6292C10.4353 19.77 10.3803 19.905 10.2824 20.0045C10.1845 20.1041 10.0517 20.16 9.91328 20.16C9.77484 20.16 9.64206 20.1041 9.54416 20.0045L0.153016 10.4553C0.104508 10.4061 0.0660257 10.3476 0.03977 10.2832C0.0135143 10.2188 0 10.1497 0 10.08C0 10.0103 0.0135143 9.94125 0.03977 9.87685C0.0660257 9.81244 0.104508 9.75393 0.153016 9.70466L9.54416 0.155469C9.59263 0.106179 9.65018 0.0670804 9.71352 0.0404049C9.77685 0.0137295 9.84473 0 9.91328 0C9.98184 0 10.0497 0.0137295 10.1131 0.0404049C10.1764 0.0670804 10.2339 0.106179 10.2824 0.155469C10.3309 0.204759 10.3693 0.263275 10.3956 0.327675C10.4218 0.392075 10.4353 0.461099 10.4353 0.530806C10.4353 0.600512 10.4218 0.669536 10.3956 0.733936C10.3693 0.798337 10.3309 0.856852 10.2824 0.906142L1.78212 9.54949H23.4783C23.6166 9.54949 23.7493 9.60538 23.8472 9.70487C23.945 9.80436 24 9.9393 24 10.08Z" fill="#F4F0E7"/>
</svg>
