<svg width="32" height="32" viewBox="0 0 32 32" fill="none" xmlns="http://www.w3.org/2000/svg">
<path d="M17.9062 13.1562C17.1844 13.1562 16.625 13.7156 16.625 14.4062C16.625 15.0969 17.1844 15.6562 17.9062 15.6562C18.5656 15.6562 19.125 15.0969 19.125 14.4062C19.125 13.7156 18.5656 13.1562 17.9062 13.1562ZM9.15625 13.1562C8.43437 13.1562 7.875 13.7156 7.875 14.4062C7.875 15.0969 8.43437 15.6562 9.15625 15.6562C9.81563 15.6562 10.375 15.0969 10.375 14.4062C10.375 13.7156 9.81563 13.1562 9.15625 13.1562Z" fill="#F4F0E7"/>
<path d="M27.9375 10.7812C26.4343 8.71868 24.3343 7.34056 22.0312 6.71868V6.72181C21.4968 6.12806 20.8937 5.58118 20.2187 5.09368C15.1031 1.37493 7.92182 2.50931 4.18745 7.62493C1.17807 11.7812 1.3062 17.3718 4.37495 21.3437L4.39995 25.4874C4.39995 25.5874 4.41557 25.6874 4.44682 25.7812C4.61245 26.3093 5.17495 26.5999 5.69995 26.4343L9.6562 25.1874C10.7031 25.5593 11.7843 25.7718 12.8593 25.8312L12.8437 25.8437C15.6281 27.8718 19.2781 28.4812 22.625 27.3749L26.5968 28.6687C26.6968 28.6999 26.8 28.7187 26.9062 28.7187C27.4593 28.7187 27.9062 28.2718 27.9062 27.7187V23.5312C30.6593 19.7937 30.7312 14.6281 27.9375 10.7812ZM10.0937 22.9687L9.7187 22.8124L6.62495 23.7812L6.5937 20.5312L6.3437 20.2499C3.69995 17.0249 3.52495 12.3781 5.99995 8.96868C9.01245 4.83743 14.7874 3.92493 18.9062 6.90618C23.0375 9.90931 23.9531 15.6749 20.9687 19.7812C18.4656 23.2156 13.9843 24.4843 10.0937 22.9687ZM25.875 22.4374L25.625 22.7499L25.6562 25.9999L22.5937 24.9687L22.2187 25.1249C20.4687 25.7749 18.6031 25.8281 16.875 25.3437L16.8687 25.3406C19.1781 24.6312 21.2718 23.1937 22.7812 21.1249C25.1687 17.8343 25.5562 13.6999 24.1687 10.1749L24.1875 10.1874C24.9062 10.7031 25.5656 11.3468 26.125 12.1249C28.3937 15.2374 28.2656 19.4749 25.875 22.4374Z" fill="#F4F0E7"/>
<path d="M13.5312 13.1562C12.8094 13.1562 12.25 13.7156 12.25 14.4062C12.25 15.0969 12.8094 15.6562 13.5312 15.6562C14.1906 15.6562 14.75 15.0969 14.75 14.4062C14.75 13.7156 14.1906 13.1562 13.5312 13.1562Z" fill="#F4F0E7"/>
</svg>
