<svg width="24" height="22" viewBox="0 0 24 22" fill="none" xmlns="http://www.w3.org/2000/svg">
<path d="M4.36364 8.72727V21.8182H0V8.72727H4.36364ZM8.72727 21.8182C8.14862 21.8182 7.59366 21.5883 7.18449 21.1791C6.77532 20.77 6.54545 20.215 6.54545 19.6364V8.72727C6.54545 8.12727 6.78545 7.58182 7.18909 7.18909L14.3673 0L15.5236 1.15636C15.8182 1.45091 16.0036 1.85455 16.0036 2.30182L15.9709 2.65091L14.9345 7.63636H21.8182C22.3968 7.63636 22.9518 7.86623 23.361 8.2754C23.7701 8.68457 24 9.23953 24 9.81818V12C24 12.2836 23.9455 12.5455 23.8473 12.7964L20.5527 20.4873C20.2255 21.2727 19.4509 21.8182 18.5455 21.8182H8.72727ZM8.72727 19.6364H18.5782L21.8182 12V9.81818H12.2291L13.4618 4.01455L8.72727 8.76V19.6364Z" fill="#F4F0E7"/>
</svg>
