<svg width="24" height="24" viewBox="0 0 24 24" fill="none" xmlns="http://www.w3.org/2000/svg">
<path d="M22.5 0H8.5C6.24566 0 4.08365 0.93447 2.48959 2.59784C0.895533 4.2612 0 6.51721 0 8.86957C0 11.2219 0.895533 13.4779 2.48959 15.1413C4.08365 16.8047 6.24566 17.7391 8.5 17.7391H13V22.4348C13 22.8499 13.158 23.248 13.4393 23.5416C13.7206 23.8351 14.1022 24 14.5 24C14.8978 24 15.2794 23.8351 15.5607 23.5416C15.842 23.248 16 22.8499 16 22.4348V3.13043H18V22.4348C18 22.8499 18.158 23.248 18.4393 23.5416C18.7206 23.8351 19.1022 24 19.5 24C19.8978 24 20.2794 23.8351 20.5607 23.5416C20.842 23.248 21 22.8499 21 22.4348V3.13043H22.5C22.8978 3.13043 23.2794 2.96553 23.5607 2.67199C23.842 2.37846 24 1.98034 24 1.56522C24 1.1501 23.842 0.751977 23.5607 0.458441C23.2794 0.164906 22.8978 0 22.5 0ZM13 14.6087H8.5C7.04131 14.6087 5.64236 14.004 4.61091 12.9277C3.57946 11.8514 3 10.3917 3 8.86957C3 7.34745 3.57946 5.88768 4.61091 4.81139C5.64236 3.73509 7.04131 3.13043 8.5 3.13043H13V14.6087Z" fill="#F4F0E7"/>
</svg>
